<svg width="21" height="19" viewBox="0 0 21 19" fill="none" xmlns="http://www.w3.org/2000/svg">
<path d="M10.501 1.52901C12.85 -0.57999 16.48 -0.50999 18.743 1.75701C21.005 4.02501 21.083 7.63701 18.979 9.99301L10.499 18.485L2.02101 9.99301C-0.082994 7.63701 -0.00399375 4.01901 2.25701 1.75701C4.52201 -0.506989 8.14501 -0.58299 10.501 1.52901ZM17.327 3.17001C15.827 1.66801 13.407 1.60701 11.837 3.01701L10.502 4.21501L9.16601 3.01801C7.59101 1.60601 5.17601 1.66801 3.67201 3.17201C2.18201 4.66201 2.10701 7.04701 3.48001 8.62301L10.5 15.654L17.52 8.62401C18.894 7.04701 18.819 4.66501 17.327 3.17001Z" fill="#D9D9D9"/>
</svg>
